<mxfile host="app.diagrams.net" modified="2023-10-16T12:33:48.012Z" agent="Mozilla/5.0 (Macintosh; Intel Mac OS X 10_15_7) AppleWebKit/537.36 (KHTML, like Gecko) Chrome/114.0.0.0 Safari/537.36" etag="0iggLB7MqVnGK9A8e4Mz" version="22.0.4" type="github">
  <diagram id="UCsOTFXBRkre39a4RXzv" name="第 1 页">
    <mxGraphModel dx="1431" dy="668" grid="1" gridSize="10" guides="1" tooltips="1" connect="1" arrows="1" fold="1" page="1" pageScale="1" pageWidth="1169" pageHeight="1654" math="0" shadow="0">
      <root>
        <mxCell id="0" />
        <mxCell id="1" parent="0" />
        <mxCell id="ucUWvhHnKee84ILC6INL-1" value="" style="curved=1;endArrow=classic;html=1;rounded=0;" edge="1" parent="1">
          <mxGeometry width="50" height="50" relative="1" as="geometry">
            <mxPoint x="560" y="390" as="sourcePoint" />
            <mxPoint x="660" y="340" as="targetPoint" />
            <Array as="points">
              <mxPoint x="660" y="390" />
            </Array>
          </mxGeometry>
        </mxCell>
        <mxCell id="ucUWvhHnKee84ILC6INL-2" value="" style="shape=image;verticalLabelPosition=bottom;labelBackgroundColor=default;verticalAlign=top;aspect=fixed;imageAspect=0;image=data:image/png,iVBORw0KGgoAAAANSUhEUgAAATYAAAE4CAYAAADRtt/ZAAAAAXNSR0IArs4c6QAAAHhlWElmTU0AKgAAAAgABAEaAAUAAAABAAAAPgEbAAUAAAABAAAARgEoAAMAAAABAAIAAIdpAAQAAAABAAAATgAAAAAAAACQAAAAAQAAAJAAAAABAAOgAQADAAAAAQABAACgAgAEAAAAAQAAATagAwAEAAAAAQAAATgAAAAAuvBNIAAAAAlwSFlzAAAWJQAAFiUBSVIk8AAADKNJREFUeAHt1rGrlucZB2C/9hSaP8DdxanDcXFNIKN4loOBg4O1IVMISS0EwRREiIIIPW0pnYq1GeRA3I44BtLVxQydXNz9A1oo4aS+4cPhRd4n3ND3vm8vB78vr0+e936u38OP79QpfwgQINBMYLO7f3jS7EyOQ4DAWy7ws7f8/I5PgEBDgZ3tmU6fOb/9usrnyxdPp/dePdhb5f3blz44Op6+fv2nj7aPVvv84LO/Te8+e+7hajO8evHzZ5en9x/fv7DqHHsfPpne/4/fv7fqHL/+8tvp/Y/uXlx1Di+fC1y6/nh66Bfb3MYTAgSKCyi24gEanwCBuYBim5t4QoBAcQHFVjxA4xMgMBdQbHMTTwgQKC6g2IoHaHwCBOYCim1u4gkBAsUFFFvxAI1PgMBcQLHNTTwhQKC4gGIrHqDxCRCYCyi2uYknBAgUF1BsxQM0PgECcwHFNjfxhACB4gKKrXiAxidAYC6g2OYmnhAgUFxAsRUP0PgECMwFFNvcxBMCBIoLKLbiARqfAIG5gGKbm3hCgEBxAcVWPEDjEyAwF1BscxNPCBAoLqDYigdofAIE5gKKbW7iCQECxQUUW/EAjU+AwFxAsc1NPCFAoLiAYiseoPEJEJgLKLa5iScECBQXUGzFAzQ+AQJzAcU2N/GEAIHiAoqteIDGJ0BgLqDY5iaeECBQXGCzu394UvwMxiewisCjuxdXea+Xvlng0vXH0z/6xfZmI/9CgEBRgZ3t3Lc/P9h+XeXzi3tH03tPnzm/yvu3L3354un09erB3vbRap8Pjo6nd9+4ue6P6ju3NtMcZ889XM3i1YufP7s8vf+vfzi76hwf/+75qu/38mUBv9iWjawgQKCYgGIrFphxCRBYFlBsy0ZWECBQTECxFQvMuAQILAsotmUjKwgQKCag2IoFZlwCBJYFFNuykRUECBQTUGzFAjMuAQLLAopt2cgKAgSKCSi2YoEZlwCBZQHFtmxkBQECxQQUW7HAjEuAwLKAYls2soIAgWICiq1YYMYlQGBZQLEtG1lBgEAxAcVWLDDjEiCwLKDYlo2sIECgmIBiKxaYcQkQWBZQbMtGVhAgUExAsRULzLgECCwLKLZlIysIECgmoNiKBWZcAgSWBRTbspEVBAgUE1BsxQIzLgECywKKbdnICgIEigkotmKBGZcAgWUBxbZsZAUBAsUEFFuxwIxLgMCygGJbNrKCAIFiAoqtWGDGJUBgWUCxLRtZQYBAMYHN7v7hSbGZjUsghcCjuxdTzGGI1wKXrj+e/sMvttcmvhEg0ERgZ3uO258fbL+u8vnFvaPpvVcP9lZ5//alD46Op6+nz5zfPlrt8+WLp9O7j+9fWG2GVy/e+/DJ9P4bN9f9cX/n1maa451f/GX6XOuvf//3k7Ve7b2DAn6xDUJZRoBAHQHFVicrkxIgMCig2AahLCNAoI6AYquTlUkJEBgUUGyDUJYRIFBHQLHVycqkBAgMCii2QSjLCBCoI6DY6mRlUgIEBgUU2yCUZQQI1BFQbHWyMikBAoMCim0QyjICBOoIKLY6WZmUAIFBAcU2CGUZAQJ1BBRbnaxMSoDAoIBiG4SyjACBOgKKrU5WJiVAYFBAsQ1CWUaAQB0BxVYnK5MSIDAooNgGoSwjQKCOgGKrk5VJCRAYFFBsg1CWESBQR0Cx1cnKpAQIDAootkEoywgQqCOg2OpkZVICBAYFFNsglGUECNQRUGx1sjIpAQKDAoptEMoyAgTqCCi2OlmZlACBQQHFNghlGQECdQQUW52sTEqAwKCAYhuEsowAgToCiq1OViYlQGBQYLO7f3gyuNYyAgQIlBDwi61ETIYkQOCnCOxsF//x3Wvbrz6TCPz2n4fTJDdu+lGdJJJpjDu3NtPnN7/6KtNYZvmfwPv/ujI5+MXmOhAg0E5AsbWL1IEIEFBs7gABAu0EFFu7SB2IAAHF5g4QINBOQLG1i9SBCBBQbO4AAQLtBBRbu0gdiAABxeYOECDQTkCxtYvUgQgQUGzuAAEC7QQUW7tIHYgAAcXmDhAg0E5AsbWL1IEIEFBs7gABAu0EFFu7SB2IAAHF5g4QINBOQLG1i9SBCBBQbO4AAQLtBBRbu0gdiAABxeYOECDQTkCxtYvUgQgQUGzuAAEC7QQUW7tIHYgAAcXmDhAg0E5AsbWL1IEIEFBs7gABAu0EFFu7SB2IAAHF5g4QINBOQLG1i9SBCBBQbO4AAQLtBBRbu0gdiAABxeYOECDQTkCxtYvUgQgQUGzuAAEC7QQUW7tIHYgAAcXmDhAg0E5AsbWL1IEIEFBs7gABAu0EFFu7SB2IAAHF5g4QINBOQLG1i9SBCBBQbO4AAQLtBBRbu0gdiAABxeYOECDQTkCxtYvUgQgQUGzuAAEC7QQUW7tIHYgAAcXmDhAg0E5AsbWL1IEIEFBs7gABAu0EFFu7SB2IAAHF5g4QINBOQLG1i9SBCBBQbO4AAQLtBBRbu0gdiAABxeYOECDQTkCxtYvUgQgQUGzuAAEC7QQUW7tIHYgAAcXmDhAg0E5AsbWL1IEIEFBs7gABAu0EFFu7SB2IAAHF5g4QINBOQLG1i9SBCBBQbO4AAQLtBBRbu0gdiAABxeYOECDQTkCxtYvUgQgQUGzuAAEC7QQUW7tIHYgAAcXmDhAg0E5AsbWL1IEIEFBs7gABAu0EFFu7SB2IAAHF5g4QINBOQLG1i9SBCBBQbO4AAQLtBBRbu0gdiAABxeYOECDQTkCxtYvUgQgQUGzuAAEC7QQUW7tIHYgAAcXmDhAg0E5AsbWL1IEIEFBs7gABAu0EFFu7SB2IAAHF5g4QINBOQLG1i9SBCBBQbO4AAQLtBBRbu0gdiAABxeYOECDQTkCxtYvUgQgQUGzuAAEC7QQUW7tIHYgAAcXmDhAg0E5AsbWL1IEIEFBs7gABAu0ENrv7hyftTuVABAi81QJ+sb3V8Ts8gZ4CO9tjPfv02varzyQC5/58OE3y3ZXfJJnIGK8Edr/6+48QP/8lkGwC3/9nmsgvtmzBmIcAgbCAYgsT2oAAgWwCii1bIuYhQCAsoNjChDYgQCCbgGLLloh5CBAICyi2MKENCBDIJqDYsiViHgIEwgKKLUxoAwIEsgkotmyJmIcAgbCAYgsT2oAAgWwCii1bIuYhQCAsoNjChDYgQCCbgGLLloh5CBAICyi2MKENCBDIJqDYsiViHgIEwgKKLUxoAwIEsgkotmyJmIcAgbCAYgsT2oAAgWwCii1bIuYhQCAsoNjChDYgQCCbgGLLloh5CBAICyi2MKENCBDIJqDYsiViHgIEwgKKLUxoAwIEsgkotmyJmIcAgbCAYgsT2oAAgWwCii1bIuYhQCAsoNjChDYgQCCbgGLLloh5CBAICyi2MKENCBDIJqDYsiViHgIEwgKKLUxoAwIEsgkotmyJmIcAgbCAYgsT2oAAgWwCii1bIuYhQCAsoNjChDYgQCCbgGLLloh5CBAICyi2MKENCBDIJqDYsiViHgIEwgKKLUxoAwIEsgkotmyJmIcAgbCAYgsT2oAAgWwCii1bIuYhQCAsoNjChDYgQCCbgGLLloh5CBAICyi2MKENCBDIJqDYsiViHgIEwgKKLUxoAwIEsgkotmyJmIcAgbCAYgsT2oAAgWwCii1bIuYhQCAsoNjChDYgQCCbgGLLloh5CBAICyi2MKENCBDIJqDYsiViHgIEwgKKLUxoAwIEsgkotmyJmIcAgbCAYgsT2oAAgWwCii1bIuYhQCAsoNjChDYgQCCbgGLLloh5CBAICyi2MKENCBDIJqDYsiViHgIEwgKKLUxoAwIEsgkotmyJmIcAgbCAYgsT2oAAgWwCii1bIuYhQCAsoNjChDYgQCCbgGLLloh5CBAICyi2MKENCBDIJqDYsiViHgIEwgKKLUxoAwIEsgkotmyJmIcAgbCAYgsT2oAAgWwCii1bIuYhQCAsoNjChDYgQCCbgGLLloh5CBAICyi2MKENCBDIJqDYsiViHgIEwgKKLUxoAwIEsgkotmyJmIcAgbCAYgsT2oAAgWwCii1bIuYhQCAsoNjChDYgQCCbgGLLloh5CBAICyi2MKENCBDIJqDYsiViHgIEwgKKLUxoAwIEsgkotmyJmIcAgbCAYgsT2oAAgWwCii1bIuYhQCAsoNjChDYgQCCbgGLLloh5CBAICyi2MKENCBDIJqDYsiViHgIEwgKKLUxoAwIEsgkotmyJmIcAgbCAYgsT2oAAgWwCii1bIuYhQCAsoNjChDYgQCCbwGZ3//Ak21DmIUCAQETAL7aInv+XAAECBAgQIPD/EPgB+KJey6G9XCEAAAAASUVORK5CYII=;" vertex="1" parent="1">
          <mxGeometry x="270" y="100" width="130" height="130.84" as="geometry" />
        </mxCell>
        <mxCell id="ucUWvhHnKee84ILC6INL-3" value="" style="shape=image;verticalLabelPosition=bottom;labelBackgroundColor=default;verticalAlign=top;aspect=fixed;imageAspect=0;image=data:image/png,iVBORw0KGgoAAAANSUhEUgAAATYAAAE4CAYAAADRtt/ZAAAAAXNSR0IArs4c6QAAAHhlWElmTU0AKgAAAAgABAEaAAUAAAABAAAAPgEbAAUAAAABAAAARgEoAAMAAAABAAIAAIdpAAQAAAABAAAATgAAAAAAAACQAAAAAQAAAJAAAAABAAOgAQADAAAAAQABAACgAgAEAAAAAQAAATagAwAEAAAAAQAAATgAAAAAuvBNIAAAAAlwSFlzAAAWJQAAFiUBSVIk8AAADKNJREFUeAHt1rGrlucZB2C/9hSaP8DdxanDcXFNIKN4loOBg4O1IVMISS0EwRREiIIIPW0pnYq1GeRA3I44BtLVxQydXNz9A1oo4aS+4cPhRd4n3ND3vm8vB78vr0+e936u38OP79QpfwgQINBMYLO7f3jS7EyOQ4DAWy7ws7f8/I5PgEBDgZ3tmU6fOb/9usrnyxdPp/dePdhb5f3blz44Op6+fv2nj7aPVvv84LO/Te8+e+7hajO8evHzZ5en9x/fv7DqHHsfPpne/4/fv7fqHL/+8tvp/Y/uXlx1Di+fC1y6/nh66Bfb3MYTAgSKCyi24gEanwCBuYBim5t4QoBAcQHFVjxA4xMgMBdQbHMTTwgQKC6g2IoHaHwCBOYCim1u4gkBAsUFFFvxAI1PgMBcQLHNTTwhQKC4gGIrHqDxCRCYCyi2uYknBAgUF1BsxQM0PgECcwHFNjfxhACB4gKKrXiAxidAYC6g2OYmnhAgUFxAsRUP0PgECMwFFNvcxBMCBIoLKLbiARqfAIG5gGKbm3hCgEBxAcVWPEDjEyAwF1BscxNPCBAoLqDYigdofAIE5gKKbW7iCQECxQUUW/EAjU+AwFxAsc1NPCFAoLiAYiseoPEJEJgLKLa5iScECBQXUGzFAzQ+AQJzAcU2N/GEAIHiAoqteIDGJ0BgLqDY5iaeECBQXGCzu394UvwMxiewisCjuxdXea+Xvlng0vXH0z/6xfZmI/9CgEBRgZ3t3Lc/P9h+XeXzi3tH03tPnzm/yvu3L3354un09erB3vbRap8Pjo6nd9+4ue6P6ju3NtMcZ889XM3i1YufP7s8vf+vfzi76hwf/+75qu/38mUBv9iWjawgQKCYgGIrFphxCRBYFlBsy0ZWECBQTECxFQvMuAQILAsotmUjKwgQKCag2IoFZlwCBJYFFNuykRUECBQTUGzFAjMuAQLLAopt2cgKAgSKCSi2YoEZlwCBZQHFtmxkBQECxQQUW7HAjEuAwLKAYls2soIAgWICiq1YYMYlQGBZQLEtG1lBgEAxAcVWLDDjEiCwLKDYlo2sIECgmIBiKxaYcQkQWBZQbMtGVhAgUExAsRULzLgECCwLKLZlIysIECgmoNiKBWZcAgSWBRTbspEVBAgUE1BsxQIzLgECywKKbdnICgIEigkotmKBGZcAgWUBxbZsZAUBAsUEFFuxwIxLgMCygGJbNrKCAIFiAoqtWGDGJUBgWUCxLRtZQYBAMYHN7v7hSbGZjUsghcCjuxdTzGGI1wKXrj+e/sMvttcmvhEg0ERgZ3uO258fbL+u8vnFvaPpvVcP9lZ5//alD46Op6+nz5zfPlrt8+WLp9O7j+9fWG2GVy/e+/DJ9P4bN9f9cX/n1maa451f/GX6XOuvf//3k7Ve7b2DAn6xDUJZRoBAHQHFVicrkxIgMCig2AahLCNAoI6AYquTlUkJEBgUUGyDUJYRIFBHQLHVycqkBAgMCii2QSjLCBCoI6DY6mRlUgIEBgUU2yCUZQQI1BFQbHWyMikBAoMCim0QyjICBOoIKLY6WZmUAIFBAcU2CGUZAQJ1BBRbnaxMSoDAoIBiG4SyjACBOgKKrU5WJiVAYFBAsQ1CWUaAQB0BxVYnK5MSIDAooNgGoSwjQKCOgGKrk5VJCRAYFFBsg1CWESBQR0Cx1cnKpAQIDAootkEoywgQqCOg2OpkZVICBAYFFNsglGUECNQRUGx1sjIpAQKDAoptEMoyAgTqCCi2OlmZlACBQQHFNghlGQECdQQUW52sTEqAwKCAYhuEsowAgToCiq1OViYlQGBQYLO7f3gyuNYyAgQIlBDwi61ETIYkQOCnCOxsF//x3Wvbrz6TCPz2n4fTJDdu+lGdJJJpjDu3NtPnN7/6KtNYZvmfwPv/ujI5+MXmOhAg0E5AsbWL1IEIEFBs7gABAu0EFFu7SB2IAAHF5g4QINBOQLG1i9SBCBBQbO4AAQLtBBRbu0gdiAABxeYOECDQTkCxtYvUgQgQUGzuAAEC7QQUW7tIHYgAAcXmDhAg0E5AsbWL1IEIEFBs7gABAu0EFFu7SB2IAAHF5g4QINBOQLG1i9SBCBBQbO4AAQLtBBRbu0gdiAABxeYOECDQTkCxtYvUgQgQUGzuAAEC7QQUW7tIHYgAAcXmDhAg0E5AsbWL1IEIEFBs7gABAu0EFFu7SB2IAAHF5g4QINBOQLG1i9SBCBBQbO4AAQLtBBRbu0gdiAABxeYOECDQTkCxtYvUgQgQUGzuAAEC7QQUW7tIHYgAAcXmDhAg0E5AsbWL1IEIEFBs7gABAu0EFFu7SB2IAAHF5g4QINBOQLG1i9SBCBBQbO4AAQLtBBRbu0gdiAABxeYOECDQTkCxtYvUgQgQUGzuAAEC7QQUW7tIHYgAAcXmDhAg0E5AsbWL1IEIEFBs7gABAu0EFFu7SB2IAAHF5g4QINBOQLG1i9SBCBBQbO4AAQLtBBRbu0gdiAABxeYOECDQTkCxtYvUgQgQUGzuAAEC7QQUW7tIHYgAAcXmDhAg0E5AsbWL1IEIEFBs7gABAu0EFFu7SB2IAAHF5g4QINBOQLG1i9SBCBBQbO4AAQLtBBRbu0gdiAABxeYOECDQTkCxtYvUgQgQUGzuAAEC7QQUW7tIHYgAAcXmDhAg0E5AsbWL1IEIEFBs7gABAu0EFFu7SB2IAAHF5g4QINBOQLG1i9SBCBBQbO4AAQLtBBRbu0gdiAABxeYOECDQTkCxtYvUgQgQUGzuAAEC7QQUW7tIHYgAAcXmDhAg0E5AsbWL1IEIEFBs7gABAu0EFFu7SB2IAAHF5g4QINBOQLG1i9SBCBBQbO4AAQLtBBRbu0gdiAABxeYOECDQTkCxtYvUgQgQUGzuAAEC7QQUW7tIHYgAAcXmDhAg0E5AsbWL1IEIEFBs7gABAu0ENrv7hyftTuVABAi81QJ+sb3V8Ts8gZ4CO9tjPfv02varzyQC5/58OE3y3ZXfJJnIGK8Edr/6+48QP/8lkGwC3/9nmsgvtmzBmIcAgbCAYgsT2oAAgWwCii1bIuYhQCAsoNjChDYgQCCbgGLLloh5CBAICyi2MKENCBDIJqDYsiViHgIEwgKKLUxoAwIEsgkotmyJmIcAgbCAYgsT2oAAgWwCii1bIuYhQCAsoNjChDYgQCCbgGLLloh5CBAICyi2MKENCBDIJqDYsiViHgIEwgKKLUxoAwIEsgkotmyJmIcAgbCAYgsT2oAAgWwCii1bIuYhQCAsoNjChDYgQCCbgGLLloh5CBAICyi2MKENCBDIJqDYsiViHgIEwgKKLUxoAwIEsgkotmyJmIcAgbCAYgsT2oAAgWwCii1bIuYhQCAsoNjChDYgQCCbgGLLloh5CBAICyi2MKENCBDIJqDYsiViHgIEwgKKLUxoAwIEsgkotmyJmIcAgbCAYgsT2oAAgWwCii1bIuYhQCAsoNjChDYgQCCbgGLLloh5CBAICyi2MKENCBDIJqDYsiViHgIEwgKKLUxoAwIEsgkotmyJmIcAgbCAYgsT2oAAgWwCii1bIuYhQCAsoNjChDYgQCCbgGLLloh5CBAICyi2MKENCBDIJqDYsiViHgIEwgKKLUxoAwIEsgkotmyJmIcAgbCAYgsT2oAAgWwCii1bIuYhQCAsoNjChDYgQCCbgGLLloh5CBAICyi2MKENCBDIJqDYsiViHgIEwgKKLUxoAwIEsgkotmyJmIcAgbCAYgsT2oAAgWwCii1bIuYhQCAsoNjChDYgQCCbgGLLloh5CBAICyi2MKENCBDIJqDYsiViHgIEwgKKLUxoAwIEsgkotmyJmIcAgbCAYgsT2oAAgWwCii1bIuYhQCAsoNjChDYgQCCbgGLLloh5CBAICyi2MKENCBDIJqDYsiViHgIEwgKKLUxoAwIEsgkotmyJmIcAgbCAYgsT2oAAgWwCii1bIuYhQCAsoNjChDYgQCCbgGLLloh5CBAICyi2MKENCBDIJqDYsiViHgIEwgKKLUxoAwIEsgkotmyJmIcAgbCAYgsT2oAAgWwCii1bIuYhQCAsoNjChDYgQCCbgGLLloh5CBAICyi2MKENCBDIJqDYsiViHgIEwgKKLUxoAwIEsgkotmyJmIcAgbCAYgsT2oAAgWwCii1bIuYhQCAsoNjChDYgQCCbgGLLloh5CBAICyi2MKENCBDIJqDYsiViHgIEwgKKLUxoAwIEsgkotmyJmIcAgbCAYgsT2oAAgWwCii1bIuYhQCAsoNjChDYgQCCbwGZ3//Ak21DmIUCAQETAL7aInv+XAAECBAgQIPD/EPgB+KJey6G9XCEAAAAASUVORK5CYII=;" vertex="1" parent="1">
          <mxGeometry x="460" y="380" width="310" height="312" as="geometry" />
        </mxCell>
      </root>
    </mxGraphModel>
  </diagram>
</mxfile>
